<svg width="93" height="62" viewBox="0 0 93 62" fill="none" xmlns="http://www.w3.org/2000/svg">
<path d="M108.759 12.5127C107.104 10.858 104.418 10.858 102.785 12.5127C101.646 13.6518 100.313 14.5329 98.8302 15.2421L78.7794 -4.83022C79.4671 -6.29159 80.3697 -7.6455 81.5087 -8.78451C83.1635 -10.4393 83.1635 -13.1256 81.5087 -14.7589C79.854 -16.4137 77.1676 -16.4137 75.5343 -14.7589C68.0771 -7.30165 67.196 4.84058 68.4424 15.285C42.2238 12.1904 27.954 24.1392 31.285 52.4424C20.8406 51.196 8.69835 52.0986 1.24109 59.5343C-0.413695 61.1891 -0.413695 63.8755 1.24109 65.5087C2.89587 67.1635 5.5822 67.1635 7.21549 65.5087C8.3545 64.3697 9.68692 63.4886 11.1698 62.7794L31.2206 82.8302C30.5114 84.3131 29.6303 85.667 28.4913 86.7845C26.8365 88.4393 26.8365 91.1256 28.4913 92.7589C30.146 94.4137 32.8324 94.4137 34.4657 92.7589C41.9229 85.3017 42.804 73.1594 41.5576 62.715C67.7762 65.8096 82.046 53.8608 78.715 25.5576C89.1379 26.804 101.302 25.9014 108.759 18.4657C110.414 16.8324 110.414 14.1675 108.759 12.5127ZM33.4771 73.1379L20.8621 60.5229C24.8164 60.265 29.007 60.5659 32.8324 61.1891C33.3481 64.3268 33.778 68.7323 33.4771 73.1379ZM40.0317 53.9683C39.4085 50.1214 39.1076 45.9307 39.3655 42.0194L51.9806 54.6345C48.0478 54.8924 43.8571 54.5915 40.0317 53.9683ZM61.6729 52.3779L41.6221 32.3271C43.0619 29.297 45.1035 27.1694 48.2842 25.665L68.335 45.7158C66.9166 48.746 64.875 50.8521 61.6729 52.3779ZM70.613 36.0021L57.9979 23.387C61.9307 23.1291 66.1214 23.43 69.9468 24.0532C70.57 27.9001 70.8709 32.0907 70.613 36.0021ZM77.1676 16.8324C76.5444 12.9855 76.2435 8.79486 76.5014 4.88356L89.1164 17.4986C85.1836 17.7565 80.993 17.4556 77.1676 16.8324Z" fill="#F864A1"/>
</svg>
