<svg width="343" height="372" viewBox="0 0 343 372" fill="none" xmlns="http://www.w3.org/2000/svg">
<path d="M324.221 251.329C319.341 263.667 309.757 273.559 297.579 278.827L92.9117 367.366C63.5432 380.07 30.0762 361.675 25.0621 330.072L1.69859 182.812C-0.70075 167.689 1.92483 152.196 9.173 138.708L61.7747 40.8223C67.5608 30.0548 77.9528 22.5241 89.9865 20.378L202.672 0.281363C208.175 -0.700044 213.767 1.45977 217.181 5.8854L327.123 148.38C342.627 168.474 346.406 195.247 337.07 218.847L324.221 251.329Z" fill="#320D20" fill-opacity="0.25"/>
<path d="M323.757 251.145C318.925 263.359 309.436 273.153 297.38 278.368L92.7132 366.907C63.6444 379.482 30.5188 361.274 25.5559 329.993L2.19241 182.734C-0.189777 167.719 2.41704 152.337 9.61344 138.945L62.2151 41.0589C67.929 30.4261 78.191 22.9895 90.0743 20.8702L202.759 0.773609C208.079 -0.175104 213.485 1.91272 216.785 6.19083L326.727 148.686C342.123 168.64 345.876 195.226 336.605 218.663L323.757 251.145Z" stroke="white" stroke-opacity="0.16"/>
</svg>
