<svg width="280" height="288" viewBox="0 0 280 288" fill="none" xmlns="http://www.w3.org/2000/svg">
<path d="M0.519301 231.968C-3.41012 266.998 29.1682 294.986 63.2053 285.823L253.691 234.543C271.009 229.881 282 212.882 279.146 195.176L251.353 22.7677C249.414 10.743 239.092 1.86534 226.913 1.74767L64.4785 0.178312C42.9402 -0.02978 24.7357 16.0893 22.3345 37.4943L0.519301 231.968Z" fill="#320D20" fill-opacity="0.25"/>
<path d="M63.0753 285.341L253.561 234.06C270.631 229.465 281.466 212.709 278.652 195.256L250.859 22.8473C248.959 11.0631 238.844 2.36295 226.908 2.24765L64.4737 0.678279C43.1918 0.472682 25.204 16.3998 22.8314 37.5501L1.01618 232.024C-2.87394 266.703 29.3786 294.412 63.0753 285.341Z" stroke="white" stroke-opacity="0.16"/>
</svg>
