<svg width="34" height="34" viewBox="0 0 34 34" fill="none" xmlns="http://www.w3.org/2000/svg">
<g clip-path="url(#clip0_27_382)">
<path d="M33.0039 32.0078H32.0078V10.0938H33.0039C33.3625 10.0938 33.6945 9.90117 33.8738 9.58242C34.0531 9.26367 34.0398 8.88516 33.8539 8.57305L28.8734 0.471484C28.6941 0.179297 28.3687 0 28.0234 0C27.6781 0 27.3527 0.179297 27.1734 0.471484L22.193 8.57305C22.007 8.87852 21.9937 9.26367 22.173 9.58242C22.3523 9.89453 22.6844 10.0938 23.043 10.0938H24.0391V32.0078H22.0469V15.0742C22.0469 14.523 21.602 14.0781 21.0508 14.0781H15.0742C14.523 14.0781 14.0781 14.523 14.0781 15.0742V32.0078H12.0859V21.0508C12.0859 20.4996 11.641 20.0547 11.0898 20.0547H5.11328C4.56211 20.0547 4.11719 20.4996 4.11719 21.0508V32.0078H0.996094C0.444922 32.0078 0 32.4527 0 33.0039C0 33.5551 0.444922 34 0.996094 34H33.0039C33.5551 34 34 33.5551 34 33.0039C34 32.4527 33.5551 32.0078 33.0039 32.0078ZM16.0703 16.0703H20.0547V32.0078H16.0703V16.0703ZM6.10938 22.0469H10.0938V32.0078H6.10938V22.0469ZM26.0312 32.0078V9.09766C26.0312 8.54648 25.5863 8.10156 25.0352 8.10156H24.8227L28.0234 2.89531L31.2242 8.10156H31.0117C30.4605 8.10156 30.0156 8.54648 30.0156 9.09766V32.0078H26.0312Z" fill="white"/>
<path d="M2.98828 8.10156C3.53945 8.10156 3.98438 8.54648 3.98438 9.09766C3.98438 9.64883 3.53945 10.0938 2.98828 10.0938C2.63633 10.0938 2.3043 9.90117 2.125 9.5957C1.85273 9.11758 1.2418 8.9582 0.763672 9.23047C0.285547 9.50273 0.126172 10.1137 0.398438 10.5918C0.757031 11.216 1.32812 11.6809 1.99219 11.9133V13.0023C1.99219 13.5535 2.43711 13.9984 2.98828 13.9984C3.53945 13.9984 3.98438 13.5535 3.98438 13.0023V11.9133C5.14648 11.5016 5.97656 10.3926 5.97656 9.09766C5.97656 7.45078 4.63516 6.10938 2.98828 6.10938C2.43711 6.10938 1.99219 5.66445 1.99219 5.11328C1.99219 4.56211 2.43711 4.11719 2.98828 4.11719C3.34023 4.11719 3.67227 4.30977 3.85156 4.61523C4.12383 5.09336 4.73477 5.25273 5.21289 4.98047C5.69102 4.7082 5.85039 4.09727 5.57812 3.61914C5.21953 2.99492 4.64844 2.53008 3.98438 2.29766V0.996094C3.98438 0.444922 3.53945 0 2.98828 0C2.43711 0 1.99219 0.444922 1.99219 0.996094V2.29766C0.830078 2.70937 0 3.81172 0 5.11328C0 6.76016 1.34141 8.10156 2.98828 8.10156Z" fill="white"/>
</g>
<defs>
<clipPath id="clip0_27_382">
<rect width="34" height="34" fill="white"/>
</clipPath>
</defs>
</svg>
