<svg width="34" height="35" viewBox="0 0 34 35" fill="none" xmlns="http://www.w3.org/2000/svg">
<path d="M31.3438 22.3109V8.23279C31.3438 6.76521 30.1551 5.57654 28.6875 5.57654H26.9609V6.90466C26.9609 7.63513 26.3633 8.23279 25.6328 8.23279C24.9023 8.23279 24.3047 7.63513 24.3047 6.90466V5.57654H18.2617V6.90466C18.2617 7.63513 17.6641 8.23279 16.9336 8.23279C16.2031 8.23279 15.6055 7.63513 15.6055 6.90466V5.57654H9.62891V6.90466C9.62891 7.63513 9.03125 8.23279 8.30078 8.23279C7.57031 8.23279 6.97266 7.63513 6.97266 6.90466V5.57654H5.3125C3.84492 5.57654 2.65625 6.76521 2.65625 8.23279V10.225H27.3594C28.0898 10.225 28.6875 10.8226 28.6875 11.5531C28.6875 12.2836 28.0898 12.8812 27.3594 12.8812H2.65625V28.9515C2.65625 30.4191 3.84492 31.6078 5.3125 31.6078H28.6875C30.1551 31.6078 31.3438 30.4191 31.3438 28.9515C31.3438 28.2211 31.9414 27.6234 32.6719 27.6234C33.4023 27.6234 34 28.2211 34 28.9515C34 31.8801 31.616 34.264 28.6875 34.264H5.3125C2.38398 34.264 0 31.8801 0 28.9515V8.23279C0 5.30427 2.38398 2.92029 5.3125 2.92029H6.97266V1.59216C6.97266 0.861694 7.57031 0.264038 8.30078 0.264038C9.03125 0.264038 9.62891 0.861694 9.62891 1.59216V2.92029H15.6055V1.59216C15.6055 0.861694 16.2031 0.264038 16.9336 0.264038C17.6641 0.264038 18.2617 0.861694 18.2617 1.59216V2.92029H24.3047V1.59216C24.3047 0.861694 24.9023 0.264038 25.6328 0.264038C26.3633 0.264038 26.9609 0.861694 26.9609 1.59216V2.92029H28.6875C31.616 2.92029 34 5.30427 34 8.23279V22.3109C34 23.0414 33.4023 23.639 32.6719 23.639C31.9414 23.639 31.3438 23.0414 31.3438 22.3109ZM17.6641 28.9515C18.3945 28.9515 18.9922 28.3539 18.9922 27.6234V16.7328C18.9922 16.2281 18.7066 15.7633 18.2484 15.5375C17.7902 15.3117 17.2523 15.3715 16.8473 15.6836L14.191 17.7422C13.6133 18.1937 13.507 19.0238 13.952 19.6082C14.4035 20.1859 15.2336 20.2922 15.818 19.8472L16.3359 19.4488V27.6234C16.3359 28.3539 16.9336 28.9515 17.6641 28.9515Z" fill="white"/>
</svg>
