<svg width="34" height="34" viewBox="0 0 34 34" fill="none" xmlns="http://www.w3.org/2000/svg">
<g clip-path="url(#clip0_27_365)">
<path d="M29.0195 4.98047C25.8121 1.76641 21.5422 0 17 0C12.4578 0 8.18789 1.76641 4.98047 4.98047C1.76641 8.18789 0 12.4578 0 17C0 21.5422 1.76641 25.8121 4.98047 29.0195C8.19453 32.2336 12.4578 34 17 34C21.5422 34 25.8121 32.2336 29.0195 29.0195C32.2336 25.8055 34 21.5422 34 17C34 12.4578 32.2336 8.18789 29.0195 4.98047ZM17 31.9746C8.73906 31.9746 2.02539 25.2609 2.02539 17C2.02539 8.73906 8.73906 2.02539 17 2.02539C25.2609 2.02539 31.9746 8.73906 31.9746 17C31.9746 25.2609 25.2609 31.9746 17 31.9746Z" fill="white"/>
<path d="M13.3213 12.511C11.6611 10.8508 8.96504 10.8508 7.31152 12.511C6.91309 12.9028 6.91309 13.5469 7.31152 13.9454C7.70996 14.3372 8.34746 14.3372 8.7459 13.9454C9.61582 13.0754 11.0236 13.0754 11.8936 13.9454C12.0928 14.1446 12.3518 14.2442 12.6107 14.2442C12.8697 14.2442 13.1287 14.1446 13.3279 13.9454C13.7197 13.5469 13.7197 12.9028 13.3213 12.511Z" fill="white"/>
<path d="M26.6885 12.511C25.0283 10.8508 22.3322 10.8508 20.6787 12.511C20.2803 12.9028 20.2803 13.5469 20.6787 13.9454C21.0771 14.3372 21.7146 14.3372 22.1131 13.9454C22.983 13.0754 24.3908 13.0754 25.2607 13.9454C25.46 14.1446 25.7189 14.2442 25.9779 14.2442C26.2369 14.2442 26.4959 14.1446 26.6951 13.9454C27.0803 13.5469 27.0803 12.9028 26.6885 12.511Z" fill="white"/>
<path d="M25.9714 17.7438H8.02842C7.47061 17.7438 7.01904 18.1953 7.01904 18.7531C7.01904 24.2582 11.4948 28.734 16.9999 28.734C22.505 28.734 26.9808 24.2582 26.9808 18.7531C26.9808 18.1953 26.5292 17.7438 25.9714 17.7438ZM16.9999 26.7153C12.9558 26.7153 9.60225 23.6805 9.1042 19.7692H24.8956C24.3976 23.6805 21.044 26.7153 16.9999 26.7153Z" fill="white"/>
</g>
<defs>
<clipPath id="clip0_27_365">
<rect width="34" height="34" fill="white"/>
</clipPath>
</defs>
</svg>
