<svg width="34" height="34" viewBox="0 0 34 34" fill="none" xmlns="http://www.w3.org/2000/svg">
<path fill-rule="evenodd" clip-rule="evenodd" d="M10.9084 7.02789C7.92829 9.0996 5.95219 12.6534 5.95219 16.7012C5.95219 18.8765 6.53386 20.9163 7.52191 22.6614C6.88446 22.9163 6.29482 23.1713 5.84064 23.3785C5.69721 23.1235 5.41833 22.9562 5.10757 22.9562H0.85259C0.38247 22.9482 0 23.3307 0 23.8008V32.3028C0 32.7729 0.38247 33.1554 0.85259 33.1554H20.1116C21.0359 33.1554 21.9363 32.8446 22.6693 32.2709C24.9641 30.4701 31.0279 25.7131 33.0199 24.1355C33.6414 23.6494 34 22.9084 34 22.1195C34 21.4343 33.7291 20.7729 33.251 20.3028C32.7729 19.8247 32.1195 19.5538 31.4422 19.5538H31.1554C30.6693 19.5538 30.1833 19.6574 29.745 19.8566L27.2749 20.9801C27.7769 19.6574 28.0558 18.2072 28.0558 16.6932C28.0558 12.6534 26.0876 9.09163 23.0996 7.01992C23.6414 6.47809 24.5737 5.46614 25.0677 4.43825C25.4422 3.66534 25.5777 2.87649 25.3546 2.19123C25.1952 1.68924 24.8526 1.21912 24.2231 0.860558C23.3546 0.358566 22.4382 0.390438 21.6574 0.645418C21.1554 0.804781 20.7251 1.05179 20.3984 1.2749C19.6653 0.772908 18.3347 0 16.996 0C15.6574 0 14.3267 0.772908 13.5936 1.2749C13.2669 1.05976 12.8287 0.804781 12.3347 0.645418C11.5458 0.390438 10.6295 0.358566 9.76892 0.860558C9.13944 1.22709 8.79681 1.69721 8.63745 2.19123C8.41434 2.86853 8.5498 3.66534 8.9243 4.43825C9.42629 5.4741 10.3506 6.47809 10.8924 7.01992L10.9084 7.02789ZM4.24701 24.6454H1.69721V31.4422H4.24701V24.6534V24.6454ZM5.95219 31.4422H20.1116C20.6534 31.4422 21.1872 31.259 21.6175 30.9243C23.9123 29.1235 29.9761 24.3665 31.9681 22.7888C32.1753 22.6295 32.3028 22.3825 32.3028 22.1195C32.3028 21.8805 32.2072 21.6574 32.0478 21.498C31.8884 21.3386 31.6653 21.243 31.4343 21.243H31.1474C30.9004 21.243 30.6614 21.2908 30.4382 21.3944L21.8964 25.2749C21.753 25.6653 21.5219 26.0239 21.2271 26.3187C20.6693 26.8765 19.9123 27.1873 19.1155 27.1873H15.2908C14.8207 27.1873 14.4382 26.8048 14.4382 26.3347C14.4382 25.8645 14.8207 25.4821 15.2908 25.4821H19.1155C19.4582 25.4821 19.7769 25.3466 20.0159 25.1076C20.255 24.8685 20.3904 24.5498 20.3904 24.2072C20.3904 23.498 19.8247 22.9323 19.1155 22.9323H12.741C10.7729 22.9323 7.21912 24.5498 5.94422 25.1554V31.4263H5.95219V31.4422ZM16.996 6.98008C14.8606 8.47012 13.5219 9.88844 12.6375 11.4661C12.4064 11.8725 11.8884 12.0159 11.4821 11.8008C11.0757 11.5697 10.9323 11.0518 11.1474 10.6454C11.7689 9.52988 12.5896 8.47809 13.7131 7.43426C10.1673 8.83665 7.6494 12.4701 7.6494 16.7012C7.6494 18.6693 8.19123 20.51 9.13944 22.0558C10.4382 21.6016 11.7769 21.259 12.749 21.259H19.1235C20.4781 21.259 21.6175 22.1594 21.9761 23.3944L24.8526 22.0956C24.8526 22.0956 24.8765 22.0478 24.8924 22.0159C25.8167 20.4781 26.3506 18.6614 26.3506 16.7012C26.3506 12.4701 23.8247 8.83665 20.2789 7.42629C21.4024 8.47012 22.2151 9.52191 22.8446 10.6374C23.0757 11.0438 22.9323 11.5618 22.51 11.7928C22.1036 12.0239 21.5857 11.8805 21.3546 11.4582C20.4781 9.88048 19.1315 8.45418 16.996 6.97211V6.98008ZM23.8008 16.996C23.8008 18.4542 23.0757 19.9203 22.3506 20.6454C22.0159 20.9801 22.0159 21.5139 22.3506 21.8486C22.6853 22.1833 23.2191 22.1833 23.5538 21.8486C24.5259 20.8765 25.498 18.9402 25.498 16.996C25.498 16.5259 25.1155 16.1434 24.6454 16.1434C24.1833 16.1514 23.8008 16.5339 23.8008 16.996ZM16.1514 11.9442C15.1793 12.1434 14.4542 12.996 14.4542 14.0239C14.4542 15.1952 15.4024 16.1514 16.5817 16.1514H17.4343C17.5458 16.1514 17.6574 16.1912 17.7291 16.2789C17.8088 16.3586 17.8566 16.4622 17.8566 16.5737C17.8566 16.6853 17.8167 16.7968 17.7291 16.8685C17.6494 16.9482 17.5458 16.996 17.4343 16.996H15.2988C14.8287 16.996 14.4462 17.3785 14.4462 17.8486C14.4462 18.3187 14.8287 18.7012 15.2988 18.7012H16.1514V19.5538C16.1514 20.0239 16.5339 20.4064 17.004 20.4064C17.4741 20.4064 17.8566 20.0239 17.8566 19.5538V18.6614C18.2629 18.5737 18.6374 18.3825 18.9323 18.0797C19.3307 17.6813 19.5538 17.1474 19.5538 16.5737C19.5538 16 19.3307 15.4661 18.9323 15.0677C18.5339 14.6693 18 14.4462 17.4263 14.4462H16.5737C16.4622 14.4462 16.3506 14.4064 16.2789 14.3187C16.1992 14.239 16.1514 14.1355 16.1514 14.0239C16.1514 13.9123 16.1912 13.8008 16.2789 13.7291C16.3586 13.6494 16.4622 13.6016 16.5737 13.6016H18.7012C19.1713 13.6016 19.5538 13.2191 19.5538 12.749C19.5538 12.2789 19.1713 11.8964 18.7012 11.8964H17.8486V11.0438C17.8486 10.5737 17.4661 10.1912 16.996 10.1912C16.5259 10.1912 16.1434 10.5737 16.1434 11.0438V11.9442H16.1514ZM21.5618 6.13546C21.761 5.96016 22.9721 4.85259 23.5299 3.69721C23.7769 3.18725 23.9203 2.65339 23.3625 2.32669C22.9641 2.09562 22.5418 2.15139 22.1753 2.27092C21.49 2.49402 20.9721 2.96414 20.9721 2.96414C20.6454 3.251 20.1673 3.25896 19.8406 2.97211C19.8406 2.97211 18.4303 1.69721 17.004 1.69721C15.5777 1.69721 14.1673 2.97211 14.1673 2.97211C13.8406 3.25896 13.3546 3.251 13.0359 2.96414C13.0359 2.96414 12.5179 2.48606 11.8327 2.27092C11.4661 2.15139 11.0438 2.10359 10.6454 2.32669C10.0876 2.65339 10.239 3.19522 10.4781 3.69721C11.0359 4.85259 12.255 5.96016 12.4462 6.13546C13.8406 5.4741 15.3865 5.0996 17.012 5.0996C18.6374 5.0996 20.1673 5.4741 21.5618 6.13546Z" fill="white"/>
</svg>
