<svg width="259" height="229" viewBox="0 0 259 229" fill="none" xmlns="http://www.w3.org/2000/svg">
<path d="M229.099 22.7209C224.566 7.75514 209.597 -1.49173 194.185 1.15381L23.1372 30.5155C5.30813 33.5759 -4.52666 52.9605 3.53302 69.1557L71.9992 206.732C79.7625 222.332 96.9318 230.889 114.061 227.696L200.56 211.572C209.251 209.952 217.042 205.19 222.448 198.195L244.286 169.937C257.539 152.788 261.678 130.288 255.396 109.546L229.099 22.7209Z" fill="#320D20" fill-opacity="0.25"/>
<path d="M228.62 22.8658C224.16 8.14145 209.433 -0.956271 194.269 1.6466L23.2218 31.0082C5.72289 34.0121 -3.92979 53.0377 3.98064 68.933L72.4469 206.509C80.1106 221.909 97.0598 230.356 113.97 227.204L200.469 211.08C209.039 209.483 216.722 204.787 222.053 197.889L243.891 169.631C257.044 152.61 261.153 130.278 254.917 109.691L228.62 22.8658Z" stroke="white" stroke-opacity="0.16"/>
</svg>
