<svg width="312" height="322" viewBox="0 0 312 322" fill="none" xmlns="http://www.w3.org/2000/svg">
<path d="M0.121415 77.0879C-1.00696 62.876 8.36193 49.9518 22.2198 46.6037L211.214 0.941531C220.676 -1.34471 230.47 3.17214 234.874 11.8539L306.871 153.783C313.005 165.876 312.924 180.187 306.652 192.209L252.862 295.323C244.326 311.684 227.322 321.863 208.87 321.657L46.7724 319.843C31.2545 319.67 18.4304 307.69 17.2021 292.22L0.121415 77.0879Z" fill="#320D20" fill-opacity="0.25"/>
<path d="M0.619846 77.0483C-0.489072 63.0815 8.71829 50.3801 22.3372 47.0897L211.331 1.42755C220.568 -0.804257 230.129 3.60504 234.428 12.0801L306.425 154.009C312.486 165.958 312.406 180.099 306.209 191.978L252.418 295.091C243.97 311.286 227.14 321.361 208.875 321.157L46.778 319.343C31.5187 319.173 18.9083 307.392 17.7005 292.18L0.619846 77.0483Z" stroke="white" stroke-opacity="0.16"/>
</svg>
